solid C0
  facet normal  0.987688340595138 -0.156434465040231 -0.000000000000000
    outer loop
      vertex  0.951056516295154 -0.309016994374948  1.000000000000000
      vertex  1.000000000000000 -0.000000000000000  0.000000000000000
      vertex  1.000000000000000 -0.000000000000000  1.000000000000000
    endloop
  endfacet
  facet normal  0.987688340595138 -0.156434465040231 -0.000000000000000
    outer loop
      vertex  0.951056516295154 -0.309016994374948  1.000000000000000
      vertex  0.951056516295154 -0.309016994374948  0.000000000000000
      vertex  1.000000000000000 -0.000000000000000  0.000000000000000
    endloop
  endfacet
  facet normal  0.891006524188368 -0.453990499739547 -0.000000000000000
    outer loop
      vertex  0.809016994374947 -0.587785252292473  1.000000000000000
      vertex  0.951056516295154 -0.309016994374948  0.000000000000000
      vertex  0.951056516295154 -0.309016994374948  1.000000000000000
    endloop
  endfacet
  facet normal  0.891006524188368 -0.453990499739547 -0.000000000000000
    outer loop
      vertex  0.809016994374947 -0.587785252292473  1.000000000000000
      vertex  0.809016994374947 -0.587785252292473  0.000000000000000
      vertex  0.951056516295154 -0.309016994374948  0.000000000000000
    endloop
  endfacet
  facet normal  0.707106781186547 -0.707106781186548 -0.000000000000000
    outer loop
      vertex  0.587785252292473 -0.809016994374948  1.000000000000000
      vertex  0.809016994374947 -0.587785252292473  0.000000000000000
      vertex  0.809016994374947 -0.587785252292473  1.000000000000000
    endloop
  endfacet
  facet normal  0.707106781186547 -0.707106781186548 -0.000000000000000
    outer loop
      vertex  0.587785252292473 -0.809016994374948  1.000000000000000
      vertex  0.587785252292473 -0.809016994374948  0.000000000000000
      vertex  0.809016994374947 -0.587785252292473  0.000000000000000
    endloop
  endfacet
  facet normal  0.453990499739547 -0.891006524188368 -0.000000000000000
    outer loop
      vertex  0.309016994374947 -0.951056516295154  1.000000000000000
      vertex  0.587785252292473 -0.809016994374948  0.000000000000000
      vertex  0.587785252292473 -0.809016994374948  1.000000000000000
    endloop
  endfacet
  facet normal  0.453990499739547 -0.891006524188368 -0.000000000000000
    outer loop
      vertex  0.309016994374947 -0.951056516295154  1.000000000000000
      vertex  0.309016994374947 -0.951056516295154  0.000000000000000
      vertex  0.587785252292473 -0.809016994374948  0.000000000000000
    endloop
  endfacet
  facet normal  0.156434465040231 -0.987688340595138 -0.000000000000000
    outer loop
      vertex -0.000000000000000 -1.000000000000000  1.000000000000000
      vertex  0.309016994374947 -0.951056516295154  0.000000000000000
      vertex  0.309016994374947 -0.951056516295154  1.000000000000000
    endloop
  endfacet
  facet normal  0.156434465040231 -0.987688340595138 -0.000000000000000
    outer loop
      vertex -0.000000000000000 -1.000000000000000  1.000000000000000
      vertex -0.000000000000000 -1.000000000000000  0.000000000000000
      vertex  0.309016994374947 -0.951056516295154  0.000000000000000
    endloop
  endfacet
  facet normal -0.156434465040231 -0.987688340595138  0.000000000000000
    outer loop
      vertex -0.309016994374948 -0.951056516295154  1.000000000000000
      vertex -0.000000000000000 -1.000000000000000  0.000000000000000
      vertex -0.000000000000000 -1.000000000000000  1.000000000000000
    endloop
  endfacet
  facet normal -0.156434465040231 -0.987688340595138 -0.000000000000000
    outer loop
      vertex -0.309016994374948 -0.951056516295154  1.000000000000000
      vertex -0.309016994374948 -0.951056516295154  0.000000000000000
      vertex -0.000000000000000 -1.000000000000000  0.000000000000000
    endloop
  endfacet
  facet normal -0.453990499739547 -0.891006524188368  0.000000000000000
    outer loop
      vertex -0.587785252292473 -0.809016994374947  1.000000000000000
      vertex -0.309016994374948 -0.951056516295154  0.000000000000000
      vertex -0.309016994374948 -0.951056516295154  1.000000000000000
    endloop
  endfacet
  facet normal -0.453990499739547 -0.891006524188368 -0.000000000000000
    outer loop
      vertex -0.587785252292473 -0.809016994374947  1.000000000000000
      vertex -0.587785252292473 -0.809016994374947  0.000000000000000
      vertex -0.309016994374948 -0.951056516295154  0.000000000000000
    endloop
  endfacet
  facet normal -0.707106781186548 -0.707106781186547  0.000000000000000
    outer loop
      vertex -0.809016994374947 -0.587785252292473  1.000000000000000
      vertex -0.587785252292473 -0.809016994374947  0.000000000000000
      vertex -0.587785252292473 -0.809016994374947  1.000000000000000
    endloop
  endfacet
  facet normal -0.707106781186548 -0.707106781186547 -0.000000000000000
    outer loop
      vertex -0.809016994374947 -0.587785252292473  1.000000000000000
      vertex -0.809016994374947 -0.587785252292473  0.000000000000000
      vertex -0.587785252292473 -0.809016994374947  0.000000000000000
    endloop
  endfacet
  facet normal -0.891006524188368 -0.453990499739547  0.000000000000000
    outer loop
      vertex -0.951056516295154 -0.309016994374947  1.000000000000000
      vertex -0.809016994374947 -0.587785252292473  0.000000000000000
      vertex -0.809016994374947 -0.587785252292473  1.000000000000000
    endloop
  endfacet
  facet normal -0.891006524188368 -0.453990499739547 -0.000000000000000
    outer loop
      vertex -0.951056516295154 -0.309016994374947  1.000000000000000
      vertex -0.951056516295154 -0.309016994374947  0.000000000000000
      vertex -0.809016994374947 -0.587785252292473  0.000000000000000
    endloop
  endfacet
  facet normal -0.987688340595138 -0.156434465040231  0.000000000000000
    outer loop
      vertex -1.000000000000000  0.000000000000000  1.000000000000000
      vertex -0.951056516295154 -0.309016994374947  0.000000000000000
      vertex -0.951056516295154 -0.309016994374947  1.000000000000000
    endloop
  endfacet
  facet normal -0.987688340595138 -0.156434465040231 -0.000000000000000
    outer loop
      vertex -1.000000000000000  0.000000000000000  1.000000000000000
      vertex -1.000000000000000  0.000000000000000  0.000000000000000
      vertex -0.951056516295154 -0.309016994374947  0.000000000000000
    endloop
  endfacet
  facet normal -0.987688340595138  0.156434465040231 -0.000000000000000
    outer loop
      vertex -0.951056516295154  0.309016994374948  1.000000000000000
      vertex -1.000000000000000  0.000000000000000  0.000000000000000
      vertex -1.000000000000000  0.000000000000000  1.000000000000000
    endloop
  endfacet
  facet normal -0.987688340595138  0.156434465040231 -0.000000000000000
    outer loop
      vertex -0.951056516295154  0.309016994374948  1.000000000000000
      vertex -0.951056516295154  0.309016994374948  0.000000000000000
      vertex -1.000000000000000  0.000000000000000  0.000000000000000
    endloop
  endfacet
  facet normal -0.891006524188368  0.453990499739547 -0.000000000000000
    outer loop
      vertex -0.809016994374947  0.587785252292473  1.000000000000000
      vertex -0.951056516295154  0.309016994374948  0.000000000000000
      vertex -0.951056516295154  0.309016994374948  1.000000000000000
    endloop
  endfacet
  facet normal -0.891006524188368  0.453990499739547 -0.000000000000000
    outer loop
      vertex -0.809016994374947  0.587785252292473  1.000000000000000
      vertex -0.809016994374947  0.587785252292473  0.000000000000000
      vertex -0.951056516295154  0.309016994374948  0.000000000000000
    endloop
  endfacet
  facet normal -0.707106781186547  0.707106781186548 -0.000000000000000
    outer loop
      vertex -0.587785252292473  0.809016994374947  1.000000000000000
      vertex -0.809016994374947  0.587785252292473  0.000000000000000
      vertex -0.809016994374947  0.587785252292473  1.000000000000000
    endloop
  endfacet
  facet normal -0.707106781186547  0.707106781186548 -0.000000000000000
    outer loop
      vertex -0.587785252292473  0.809016994374947  1.000000000000000
      vertex -0.587785252292473  0.809016994374947  0.000000000000000
      vertex -0.809016994374947  0.587785252292473  0.000000000000000
    endloop
  endfacet
  facet normal -0.453990499739547  0.891006524188368 -0.000000000000000
    outer loop
      vertex -0.309016994374947  0.951056516295154  1.000000000000000
      vertex -0.587785252292473  0.809016994374947  0.000000000000000
      vertex -0.587785252292473  0.809016994374947  1.000000000000000
    endloop
  endfacet
  facet normal -0.453990499739547  0.891006524188368 -0.000000000000000
    outer loop
      vertex -0.309016994374947  0.951056516295154  1.000000000000000
      vertex -0.309016994374947  0.951056516295154  0.000000000000000
      vertex -0.587785252292473  0.809016994374947  0.000000000000000
    endloop
  endfacet
  facet normal -0.156434465040231  0.987688340595138 -0.000000000000000
    outer loop
      vertex  0.000000000000000  1.000000000000000  1.000000000000000
      vertex -0.309016994374947  0.951056516295154  0.000000000000000
      vertex -0.309016994374947  0.951056516295154  1.000000000000000
    endloop
  endfacet
  facet normal -0.156434465040231  0.987688340595138 -0.000000000000000
    outer loop
      vertex  0.000000000000000  1.000000000000000  1.000000000000000
      vertex  0.000000000000000  1.000000000000000  0.000000000000000
      vertex -0.309016994374947  0.951056516295154  0.000000000000000
    endloop
  endfacet
  facet normal  0.156434465040231  0.987688340595138 -0.000000000000000
    outer loop
      vertex  0.309016994374947  0.951056516295154  1.000000000000000
      vertex  0.000000000000000  1.000000000000000  0.000000000000000
      vertex  0.000000000000000  1.000000000000000  1.000000000000000
    endloop
  endfacet
  facet normal  0.156434465040231  0.987688340595138 -0.000000000000000
    outer loop
      vertex  0.309016994374947  0.951056516295154  1.000000000000000
      vertex  0.309016994374947  0.951056516295154  0.000000000000000
      vertex  0.000000000000000  1.000000000000000  0.000000000000000
    endloop
  endfacet
  facet normal  0.453990499739547  0.891006524188368 -0.000000000000000
    outer loop
      vertex  0.587785252292473  0.809016994374947  1.000000000000000
      vertex  0.309016994374947  0.951056516295154  0.000000000000000
      vertex  0.309016994374947  0.951056516295154  1.000000000000000
    endloop
  endfacet
  facet normal  0.453990499739547  0.891006524188368 -0.000000000000000
    outer loop
      vertex  0.587785252292473  0.809016994374947  1.000000000000000
      vertex  0.587785252292473  0.809016994374947  0.000000000000000
      vertex  0.309016994374947  0.951056516295154  0.000000000000000
    endloop
  endfacet
  facet normal  0.707106781186548  0.707106781186548 -0.000000000000000
    outer loop
      vertex  0.809016994374947  0.587785252292473  1.000000000000000
      vertex  0.587785252292473  0.809016994374947  0.000000000000000
      vertex  0.587785252292473  0.809016994374947  1.000000000000000
    endloop
  endfacet
  facet normal  0.707106781186548  0.707106781186548 -0.000000000000000
    outer loop
      vertex  0.809016994374947  0.587785252292473  1.000000000000000
      vertex  0.809016994374947  0.587785252292473  0.000000000000000
      vertex  0.587785252292473  0.809016994374947  0.000000000000000
    endloop
  endfacet
  facet normal  0.891006524188368  0.453990499739547 -0.000000000000000
    outer loop
      vertex  0.951056516295154  0.309016994374947  1.000000000000000
      vertex  0.809016994374947  0.587785252292473  0.000000000000000
      vertex  0.809016994374947  0.587785252292473  1.000000000000000
    endloop
  endfacet
  facet normal  0.891006524188368  0.453990499739547 -0.000000000000000
    outer loop
      vertex  0.951056516295154  0.309016994374947  1.000000000000000
      vertex  0.951056516295154  0.309016994374947  0.000000000000000
      vertex  0.809016994374947  0.587785252292473  0.000000000000000
    endloop
  endfacet
  facet normal  0.987688340595138  0.156434465040231 -0.000000000000000
    outer loop
      vertex  1.000000000000000 -0.000000000000000  1.000000000000000
      vertex  0.951056516295154  0.309016994374947  0.000000000000000
      vertex  0.951056516295154  0.309016994374947  1.000000000000000
    endloop
  endfacet
  facet normal  0.987688340595138  0.156434465040231 -0.000000000000000
    outer loop
      vertex  1.000000000000000 -0.000000000000000  1.000000000000000
      vertex  1.000000000000000 -0.000000000000000  0.000000000000000
      vertex  0.951056516295154  0.309016994374947  0.000000000000000
    endloop
  endfacet
endsolid

