solid INTERSECTION
  facet normal  0.882264553854614  0.139736977580440 -0.449536243375774
    outer loop
      vertex  0.769420884293813  0.250000000000000 -0.587785252292473
      vertex  0.951056516295154  0.000000000000000 -0.309016994374947
      vertex  0.809016994374947  0.000000000000000 -0.587785252292473
    endloop
  endfacet
  facet normal  0.882264553854614  0.139736977580440 -0.449536243375773
    outer loop
      vertex  0.769420884293813  0.250000000000000 -0.587785252292473
      vertex  0.904508497187474  0.293892626146237 -0.309016994374947
      vertex  0.951056516295154  0.000000000000000 -0.309016994374947
    endloop
  endfacet
  facet normal  0.975820494837866  0.154554782932108 -0.154554782932108
    outer loop
      vertex  0.904508497187474  0.293892626146237 -0.309016994374947
      vertex  1.000000000000000  0.000000000000000  0.000000000000000
      vertex  0.951056516295154  0.000000000000000 -0.309016994374947
    endloop
  endfacet
  facet normal  0.975820494837866  0.154554782932108 -0.154554782932108
    outer loop
      vertex  0.904508497187474  0.293892626146237 -0.309016994374947
      vertex  0.951056516295154  0.309016994374947  0.000000000000000
      vertex  1.000000000000000  0.000000000000000  0.000000000000000
    endloop
  endfacet
  facet normal  0.975820494837866  0.154554782932108  0.154554782932108
    outer loop
      vertex  0.951056516295154  0.309016994374947  0.000000000000000
      vertex  0.951056516295154  0.000000000000000  0.309016994374947
      vertex  1.000000000000000  0.000000000000000  0.000000000000000
    endloop
  endfacet
  facet normal  0.975820494837866  0.154554782932108  0.154554782932108
    outer loop
      vertex  0.951056516295154  0.309016994374947  0.000000000000000
      vertex  0.904508497187474  0.293892626146237  0.309016994374947
      vertex  0.951056516295154  0.000000000000000  0.309016994374947
    endloop
  endfacet
  facet normal  0.975820494837866 -0.154554782932108  0.154554782932108
    outer loop
      vertex  1.000000000000000  0.000000000000000  0.000000000000000
      vertex  0.904508497187474 -0.293892626146237  0.309016994374947
      vertex  0.951056516295154 -0.309016994374948  0.000000000000000
    endloop
  endfacet
  facet normal  0.975820494837866 -0.154554782932108  0.154554782932108
    outer loop
      vertex  1.000000000000000  0.000000000000000  0.000000000000000
      vertex  0.951056516295154  0.000000000000000  0.309016994374947
      vertex  0.904508497187474 -0.293892626146237  0.309016994374947
    endloop
  endfacet
  facet normal  0.795902352224720 -0.405532503770974 -0.449536243375774
    outer loop
      vertex  0.769420884293813 -0.250000000000000 -0.587785252292473
      vertex  0.769420884293813 -0.559016994374948 -0.309016994374947
      vertex  0.654508497187474 -0.475528258147577 -0.587785252292473
    endloop
  endfacet
  facet normal  0.795902352224720 -0.405532503770974 -0.449536243375773
    outer loop
      vertex  0.769420884293813 -0.250000000000000 -0.587785252292473
      vertex  0.904508497187474 -0.293892626146237 -0.309016994374947
      vertex  0.769420884293813 -0.559016994374948 -0.309016994374947
    endloop
  endfacet
  facet normal  0.702713511301559  0.111298886195987 -0.702713511301559
    outer loop
      vertex  0.559016994374947  0.181635632001340 -0.809016994374947
      vertex  0.809016994374947  0.000000000000000 -0.587785252292473
      vertex  0.587785252292473  0.000000000000000 -0.809016994374947
    endloop
  endfacet
  facet normal  0.702713511301559  0.111298886195987 -0.702713511301559
    outer loop
      vertex  0.559016994374947  0.181635632001340 -0.809016994374947
      vertex  0.769420884293813  0.250000000000000 -0.587785252292473
      vertex  0.809016994374947  0.000000000000000 -0.587785252292473
    endloop
  endfacet
  facet normal  0.702713511301559 -0.111298886195987 -0.702713511301559
    outer loop
      vertex  0.587785252292473  0.000000000000000 -0.809016994374947
      vertex  0.769420884293813 -0.250000000000000 -0.587785252292473
      vertex  0.559016994374947 -0.181635632001340 -0.809016994374947
    endloop
  endfacet
  facet normal  0.702713511301559 -0.111298886195987 -0.702713511301559
    outer loop
      vertex  0.587785252292473  0.000000000000000 -0.809016994374947
      vertex  0.809016994374947  0.000000000000000 -0.587785252292473
      vertex  0.769420884293813 -0.250000000000000 -0.587785252292473
    endloop
  endfacet
  facet normal  0.882264553854614 -0.139736977580440 -0.449536243375773
    outer loop
      vertex  0.809016994374947  0.000000000000000 -0.587785252292473
      vertex  0.904508497187474 -0.293892626146237 -0.309016994374947
      vertex  0.769420884293813 -0.250000000000000 -0.587785252292473
    endloop
  endfacet
  facet normal  0.882264553854614 -0.139736977580440 -0.449536243375774
    outer loop
      vertex  0.809016994374947  0.000000000000000 -0.587785252292473
      vertex  0.951056516295154  0.000000000000000 -0.309016994374947
      vertex  0.904508497187474 -0.293892626146237 -0.309016994374947
    endloop
  endfacet
  facet normal  0.975820494837866 -0.154554782932108 -0.154554782932108
    outer loop
      vertex  0.951056516295154  0.000000000000000 -0.309016994374947
      vertex  0.951056516295154 -0.309016994374948  0.000000000000000
      vertex  0.904508497187474 -0.293892626146237 -0.309016994374947
    endloop
  endfacet
  facet normal  0.975820494837866 -0.154554782932108 -0.154554782932108
    outer loop
      vertex  0.951056516295154  0.000000000000000 -0.309016994374947
      vertex  1.000000000000000  0.000000000000000  0.000000000000000
      vertex  0.951056516295154 -0.309016994374948  0.000000000000000
    endloop
  endfacet
  facet normal  0.880300385861962 -0.448535449796435 -0.154554782932107
    outer loop
      vertex  0.904508497187474 -0.293892626146237 -0.309016994374947
      vertex  0.809016994374947 -0.587785252292473  0.000000000000000
      vertex  0.769420884293813 -0.559016994374948 -0.309016994374947
    endloop
  endfacet
  facet normal  0.880300385861962 -0.448535449796435 -0.154554782932108
    outer loop
      vertex  0.904508497187474 -0.293892626146237 -0.309016994374947
      vertex  0.951056516295154 -0.309016994374948  0.000000000000000
      vertex  0.809016994374947 -0.587785252292473  0.000000000000000
    endloop
  endfacet
  facet normal  0.698610341704447 -0.698610341704448 -0.154554782932107
    outer loop
      vertex  0.769420884293813 -0.559016994374948 -0.309016994374947
      vertex  0.587785252292473 -0.809016994374948  0.000000000000000
      vertex  0.559016994374947 -0.769420884293814 -0.309016994374947
    endloop
  endfacet
  facet normal  0.698610341704447 -0.698610341704448 -0.154554782932107
    outer loop
      vertex  0.769420884293813 -0.559016994374948 -0.309016994374947
      vertex  0.809016994374947 -0.587785252292473  0.000000000000000
      vertex  0.587785252292473 -0.809016994374948  0.000000000000000
    endloop
  endfacet
  facet normal  0.698610341704447 -0.698610341704448  0.154554782932107
    outer loop
      vertex  0.809016994374947 -0.587785252292473  0.000000000000000
      vertex  0.559016994374947 -0.769420884293814  0.309016994374947
      vertex  0.587785252292473 -0.809016994374948  0.000000000000000
    endloop
  endfacet
  facet normal  0.698610341704447 -0.698610341704448  0.154554782932107
    outer loop
      vertex  0.809016994374947 -0.587785252292473  0.000000000000000
      vertex  0.769420884293813 -0.559016994374948  0.309016994374947
      vertex  0.559016994374947 -0.769420884293814  0.309016994374947
    endloop
  endfacet
  facet normal  0.880300385861962 -0.448535449796435  0.154554782932107
    outer loop
      vertex  0.951056516295154 -0.309016994374948  0.000000000000000
      vertex  0.769420884293813 -0.559016994374948  0.309016994374947
      vertex  0.809016994374947 -0.587785252292473  0.000000000000000
    endloop
  endfacet
  facet normal  0.880300385861962 -0.448535449796435  0.154554782932108
    outer loop
      vertex  0.951056516295154 -0.309016994374948  0.000000000000000
      vertex  0.904508497187474 -0.293892626146237  0.309016994374947
      vertex  0.769420884293813 -0.559016994374948  0.309016994374947
    endloop
  endfacet
  facet normal  0.795902352224720 -0.405532503770973  0.449536243375774
    outer loop
      vertex  0.904508497187474 -0.293892626146237  0.309016994374947
      vertex  0.654508497187474 -0.475528258147577  0.587785252292473
      vertex  0.769420884293813 -0.559016994374948  0.309016994374947
    endloop
  endfacet
  facet normal  0.795902352224720 -0.405532503770974  0.449536243375773
    outer loop
      vertex  0.904508497187474 -0.293892626146237  0.309016994374947
      vertex  0.769420884293813 -0.250000000000000  0.587785252292473
      vertex  0.654508497187474 -0.475528258147577  0.587785252292473
    endloop
  endfacet
  facet normal  0.882264553854614 -0.139736977580440  0.449536243375773
    outer loop
      vertex  0.951056516295154  0.000000000000000  0.309016994374947
      vertex  0.769420884293813 -0.250000000000000  0.587785252292473
      vertex  0.904508497187474 -0.293892626146237  0.309016994374947
    endloop
  endfacet
  facet normal  0.882264553854614 -0.139736977580440  0.449536243375774
    outer loop
      vertex  0.951056516295154  0.000000000000000  0.309016994374947
      vertex  0.809016994374947 -0.000000000000000  0.587785252292473
      vertex  0.769420884293813 -0.250000000000000  0.587785252292473
    endloop
  endfacet
  facet normal  0.702713511301559 -0.111298886195987  0.702713511301559
    outer loop
      vertex  0.809016994374947 -0.000000000000000  0.587785252292473
      vertex  0.559016994374947 -0.181635632001340  0.809016994374947
      vertex  0.769420884293813 -0.250000000000000  0.587785252292473
    endloop
  endfacet
  facet normal  0.702713511301559 -0.111298886195987  0.702713511301559
    outer loop
      vertex  0.809016994374947 -0.000000000000000  0.587785252292473
      vertex  0.587785252292473 -0.000000000000000  0.809016994374947
      vertex  0.559016994374947 -0.181635632001340  0.809016994374947
    endloop
  endfacet
  facet normal  0.702713511301559  0.111298886195987  0.702713511301559
    outer loop
      vertex  0.769420884293813  0.250000000000000  0.587785252292473
      vertex  0.587785252292473 -0.000000000000000  0.809016994374947
      vertex  0.809016994374947 -0.000000000000000  0.587785252292473
    endloop
  endfacet
  facet normal  0.702713511301559  0.111298886195987  0.702713511301559
    outer loop
      vertex  0.769420884293813  0.250000000000000  0.587785252292473
      vertex  0.559016994374947  0.181635632001340  0.809016994374947
      vertex  0.587785252292473 -0.000000000000000  0.809016994374947
    endloop
  endfacet
  facet normal  0.882264553854614  0.139736977580440  0.449536243375774
    outer loop
      vertex  0.904508497187474  0.293892626146237  0.309016994374947
      vertex  0.809016994374947 -0.000000000000000  0.587785252292473
      vertex  0.951056516295154  0.000000000000000  0.309016994374947
    endloop
  endfacet
  facet normal  0.882264553854614  0.139736977580440  0.449536243375773
    outer loop
      vertex  0.904508497187474  0.293892626146237  0.309016994374947
      vertex  0.769420884293813  0.250000000000000  0.587785252292473
      vertex  0.809016994374947 -0.000000000000000  0.587785252292473
    endloop
  endfacet
  facet normal  0.795902352224720  0.405532503770973  0.449536243375773
    outer loop
      vertex  0.769420884293813  0.559016994374947  0.309016994374947
      vertex  0.769420884293813  0.250000000000000  0.587785252292473
      vertex  0.904508497187474  0.293892626146237  0.309016994374947
    endloop
  endfacet
  facet normal  0.795902352224720  0.405532503770974  0.449536243375774
    outer loop
      vertex  0.769420884293813  0.559016994374947  0.309016994374947
      vertex  0.654508497187474  0.475528258147577  0.587785252292473
      vertex  0.769420884293813  0.250000000000000  0.587785252292473
    endloop
  endfacet
  facet normal  0.880300385861962  0.448535449796435  0.154554782932108
    outer loop
      vertex  0.809016994374947  0.587785252292473  0.000000000000000
      vertex  0.904508497187474  0.293892626146237  0.309016994374947
      vertex  0.951056516295154  0.309016994374947  0.000000000000000
    endloop
  endfacet
  facet normal  0.880300385861962  0.448535449796435  0.154554782932107
    outer loop
      vertex  0.809016994374947  0.587785252292473  0.000000000000000
      vertex  0.769420884293813  0.559016994374947  0.309016994374947
      vertex  0.904508497187474  0.293892626146237  0.309016994374947
    endloop
  endfacet
  facet normal  0.698610341704447  0.698610341704447  0.154554782932107
    outer loop
      vertex  0.587785252292473  0.809016994374947  0.000000000000000
      vertex  0.769420884293813  0.559016994374947  0.309016994374947
      vertex  0.809016994374947  0.587785252292473  0.000000000000000
    endloop
  endfacet
  facet normal  0.698610341704447  0.698610341704447  0.154554782932108
    outer loop
      vertex  0.587785252292473  0.809016994374947  0.000000000000000
      vertex  0.559016994374947  0.769420884293813  0.309016994374947
      vertex  0.769420884293813  0.559016994374947  0.309016994374947
    endloop
  endfacet
  facet normal  0.698610341704447  0.698610341704447 -0.154554782932107
    outer loop
      vertex  0.559016994374947  0.769420884293813 -0.309016994374947
      vertex  0.809016994374947  0.587785252292473  0.000000000000000
      vertex  0.769420884293813  0.559016994374947 -0.309016994374947
    endloop
  endfacet
  facet normal  0.698610341704447  0.698610341704447 -0.154554782932107
    outer loop
      vertex  0.559016994374947  0.769420884293813 -0.309016994374947
      vertex  0.587785252292473  0.809016994374947  0.000000000000000
      vertex  0.809016994374947  0.587785252292473  0.000000000000000
    endloop
  endfacet
  facet normal  0.880300385861962  0.448535449796435 -0.154554782932108
    outer loop
      vertex  0.769420884293813  0.559016994374947 -0.309016994374947
      vertex  0.951056516295154  0.309016994374947  0.000000000000000
      vertex  0.904508497187474  0.293892626146237 -0.309016994374947
    endloop
  endfacet
  facet normal  0.880300385861962  0.448535449796435 -0.154554782932107
    outer loop
      vertex  0.769420884293813  0.559016994374947 -0.309016994374947
      vertex  0.809016994374947  0.587785252292473  0.000000000000000
      vertex  0.951056516295154  0.309016994374947  0.000000000000000
    endloop
  endfacet
  facet normal  0.795902352224720  0.405532503770974 -0.449536243375773
    outer loop
      vertex  0.654508497187474  0.475528258147577 -0.587785252292473
      vertex  0.904508497187474  0.293892626146237 -0.309016994374947
      vertex  0.769420884293813  0.250000000000000 -0.587785252292473
    endloop
  endfacet
  facet normal  0.795902352224720  0.405532503770973 -0.449536243375774
    outer loop
      vertex  0.654508497187474  0.475528258147577 -0.587785252292473
      vertex  0.769420884293813  0.559016994374947 -0.309016994374947
      vertex  0.904508497187474  0.293892626146237 -0.309016994374947
    endloop
  endfacet
  facet normal  0.633927016722432  0.323001948142160 -0.702713511301559
    outer loop
      vertex  0.559016994374947  0.181635632001340 -0.809016994374947
      vertex  0.654508497187474  0.475528258147577 -0.587785252292473
      vertex  0.769420884293813  0.250000000000000 -0.587785252292473
    endloop
  endfacet
  facet normal  0.633927016722435  0.323001948142161 -0.702713511301557
    outer loop
      vertex  0.559016994374947  0.181635632001340 -0.809016994374947
      vertex  0.500000000000000  0.297463005164951 -0.809016994374947
      vertex  0.500000000000000  0.363271264002681 -0.778768257917526
    endloop
  endfacet
  facet normal  0.633927016722432  0.323001948142160 -0.702713511301560
    outer loop
      vertex  0.559016994374947  0.181635632001340 -0.809016994374947
      vertex  0.500000000000000  0.363271264002681 -0.778768257917526
      vertex  0.654508497187474  0.475528258147577 -0.587785252292473
    endloop
  endfacet
  facet normal  0.631631682981307  0.631631682981307  0.449536243375775
    outer loop
      vertex  0.654508497187474  0.475528258147577  0.587785252292473
      vertex  0.500000000000000  0.688190960235587  0.506074291596784
      vertex  0.500000000000000  0.630036755335050  0.587785252292473
    endloop
  endfacet
  facet normal  0.631631682981307  0.631631682981307  0.449536243375774
    outer loop
      vertex  0.654508497187474  0.475528258147577  0.587785252292473
      vertex  0.769420884293813  0.559016994374947  0.309016994374947
      vertex  0.559016994374947  0.769420884293813  0.309016994374947
    endloop
  endfacet
  facet normal  0.631631682981308  0.631631682981307  0.449536243375774
    outer loop
      vertex  0.654508497187474  0.475528258147577  0.587785252292473
      vertex  0.559016994374947  0.769420884293813  0.309016994374947
      vertex  0.500000000000000  0.688190960235587  0.506074291596784
    endloop
  endfacet
  facet normal  0.633927016722429  0.323001948142159  0.702713511301563
    outer loop
      vertex  0.559016994374947  0.181635632001340  0.809016994374947
      vertex  0.500000000000000  0.363271264002681  0.778768257917526
      vertex  0.500000000000000  0.297463005164950  0.809016994374947
    endloop
  endfacet
  facet normal  0.633927016722432  0.323001948142160  0.702713511301559
    outer loop
      vertex  0.559016994374947  0.181635632001340  0.809016994374947
      vertex  0.769420884293813  0.250000000000000  0.587785252292473
      vertex  0.654508497187474  0.475528258147577  0.587785252292473
    endloop
  endfacet
  facet normal  0.633927016722432  0.323001948142160  0.702713511301559
    outer loop
      vertex  0.559016994374947  0.181635632001340  0.809016994374947
      vertex  0.654508497187474  0.475528258147577  0.587785252292473
      vertex  0.500000000000000  0.363271264002681  0.778768257917526
    endloop
  endfacet
  facet normal  0.631631682981307  0.631631682981307 -0.449536243375774
    outer loop
      vertex  0.654508497187474  0.475528258147577 -0.587785252292473
      vertex  0.559016994374947  0.769420884293813 -0.309016994374947
      vertex  0.769420884293813  0.559016994374947 -0.309016994374947
    endloop
  endfacet
  facet normal  0.631631682981307  0.631631682981307 -0.449536243375774
    outer loop
      vertex  0.654508497187474  0.475528258147577 -0.587785252292473
      vertex  0.500000000000000  0.630036755335050 -0.587785252292473
      vertex  0.500000000000000  0.688190960235587 -0.506074291596784
    endloop
  endfacet
  facet normal  0.631631682981307  0.631631682981308 -0.449536243375774
    outer loop
      vertex  0.654508497187474  0.475528258147577 -0.587785252292473
      vertex  0.500000000000000  0.688190960235587 -0.506074291596784
      vertex  0.559016994374947  0.769420884293813 -0.309016994374947
    endloop
  endfacet
  facet normal  0.633927016722432 -0.323001948142160  0.702713511301559
    outer loop
      vertex  0.654508497187474 -0.475528258147577  0.587785252292473
      vertex  0.500000000000000 -0.297463005164951  0.809016994374947
      vertex  0.500000000000000 -0.363271264002680  0.778768257917526
    endloop
  endfacet
  facet normal  0.633927016722432 -0.323001948142160  0.702713511301559
    outer loop
      vertex  0.654508497187474 -0.475528258147577  0.587785252292473
      vertex  0.769420884293813 -0.250000000000000  0.587785252292473
      vertex  0.559016994374947 -0.181635632001340  0.809016994374947
    endloop
  endfacet
  facet normal  0.633927016722432 -0.323001948142160  0.702713511301559
    outer loop
      vertex  0.654508497187474 -0.475528258147577  0.587785252292473
      vertex  0.559016994374947 -0.181635632001340  0.809016994374947
      vertex  0.500000000000000 -0.297463005164951  0.809016994374947
    endloop
  endfacet
  facet normal  0.633927016722431 -0.323001948142159 -0.702713511301561
    outer loop
      vertex  0.559016994374947 -0.181635632001340 -0.809016994374947
      vertex  0.500000000000000 -0.363271264002680 -0.778768257917526
      vertex  0.500000000000000 -0.297463005164950 -0.809016994374947
    endloop
  endfacet
  facet normal  0.633927016722432 -0.323001948142160 -0.702713511301559
    outer loop
      vertex  0.559016994374947 -0.181635632001340 -0.809016994374947
      vertex  0.769420884293813 -0.250000000000000 -0.587785252292473
      vertex  0.654508497187474 -0.475528258147577 -0.587785252292473
    endloop
  endfacet
  facet normal  0.633927016722433 -0.323001948142160 -0.702713511301559
    outer loop
      vertex  0.559016994374947 -0.181635632001340 -0.809016994374947
      vertex  0.654508497187474 -0.475528258147577 -0.587785252292473
      vertex  0.500000000000000 -0.363271264002680 -0.778768257917526
    endloop
  endfacet
  facet normal  0.631631682981307 -0.631631682981308 -0.449536243375774
    outer loop
      vertex  0.654508497187474 -0.475528258147577 -0.587785252292473
      vertex  0.500000000000000 -0.688190960235587 -0.506074291596784
      vertex  0.500000000000000 -0.630036755335050 -0.587785252292473
    endloop
  endfacet
  facet normal  0.631631682981307 -0.631631682981307 -0.449536243375774
    outer loop
      vertex  0.654508497187474 -0.475528258147577 -0.587785252292473
      vertex  0.769420884293813 -0.559016994374948 -0.309016994374947
      vertex  0.559016994374947 -0.769420884293814 -0.309016994374947
    endloop
  endfacet
  facet normal  0.631631682981307 -0.631631682981308 -0.449536243375774
    outer loop
      vertex  0.654508497187474 -0.475528258147577 -0.587785252292473
      vertex  0.559016994374947 -0.769420884293814 -0.309016994374947
      vertex  0.500000000000000 -0.688190960235587 -0.506074291596784
    endloop
  endfacet
  facet normal  0.631631682981309 -0.631631682981306  0.449536243375773
    outer loop
      vertex  0.559016994374947 -0.769420884293814  0.309016994374947
      vertex  0.500000000000000 -0.630036755335050  0.587785252292473
      vertex  0.500000000000000 -0.688190960235587  0.506074291596785
    endloop
  endfacet
  facet normal  0.631631682981307 -0.631631682981308  0.449536243375774
    outer loop
      vertex  0.559016994374947 -0.769420884293814  0.309016994374947
      vertex  0.769420884293813 -0.559016994374948  0.309016994374947
      vertex  0.654508497187474 -0.475528258147577  0.587785252292473
    endloop
  endfacet
  facet normal  0.631631682981307 -0.631631682981308  0.449536243375774
    outer loop
      vertex  0.559016994374947 -0.769420884293814  0.309016994374947
      vertex  0.654508497187474 -0.475528258147577  0.587785252292473
      vertex  0.500000000000000 -0.630036755335050  0.587785252292473
    endloop
  endfacet
  facet normal  0.503087328917273  0.503087328917274 -0.702713511301559
    outer loop
      vertex  0.654508497187474  0.475528258147577 -0.587785252292473
      vertex  0.500000000000000  0.363271264002681 -0.778768257917526
      vertex  0.500000000000000  0.630036755335050 -0.587785252292473
    endloop
  endfacet
  facet normal  0.503087328917273  0.503087328917273  0.702713511301559
    outer loop
      vertex  0.654508497187474  0.475528258147577  0.587785252292473
      vertex  0.500000000000000  0.630036755335050  0.587785252292473
      vertex  0.500000000000000  0.363271264002681  0.778768257917526
    endloop
  endfacet
  facet normal  0.503087328917274 -0.503087328917273 -0.702713511301559
    outer loop
      vertex  0.654508497187474 -0.475528258147577 -0.587785252292473
      vertex  0.500000000000000 -0.630036755335050 -0.587785252292473
      vertex  0.500000000000000 -0.363271264002680 -0.778768257917526
    endloop
  endfacet
  facet normal  0.503087328917273 -0.503087328917273  0.702713511301559
    outer loop
      vertex  0.654508497187474 -0.475528258147577  0.587785252292473
      vertex  0.500000000000000 -0.363271264002680  0.778768257917526
      vertex  0.500000000000000 -0.630036755335050  0.587785252292473
    endloop
  endfacet
  facet normal  0.452821390158210  0.071719862447186  0.888712017441951
    outer loop
      vertex  0.587785252292473 -0.000000000000000  0.809016994374947
      vertex  0.500000000000000  0.162459848116453  0.840635158039759
      vertex  0.500000000000000  0.000000000000000  0.853745814508252
    endloop
  endfacet
  facet normal  0.452821390158211  0.071719862447187  0.888712017441950
    outer loop
      vertex  0.587785252292473 -0.000000000000000  0.809016994374947
      vertex  0.559016994374947  0.181635632001340  0.809016994374947
      vertex  0.500000000000000  0.162459848116453  0.840635158039759
    endloop
  endfacet
  facet normal  0.452821390158209  0.071719862447186 -0.888712017441951
    outer loop
      vertex  0.587785252292473  0.000000000000000 -0.809016994374947
      vertex  0.500000000000000  0.162459848116453 -0.840635158039759
      vertex  0.559016994374947  0.181635632001340 -0.809016994374947
    endloop
  endfacet
  facet normal  0.452821390158211  0.071719862447188 -0.888712017441950
    outer loop
      vertex  0.587785252292473  0.000000000000000 -0.809016994374947
      vertex  0.500000000000000  0.000000000000000 -0.853745814508252
      vertex  0.500000000000000  0.162459848116453 -0.840635158039759
    endloop
  endfacet
  facet normal  0.448535449796435  0.880300385861962 -0.154554782932107
    outer loop
      vertex  0.559016994374947  0.769420884293813 -0.309016994374947
      vertex  0.500000000000000  0.853745814508252  0.000000000000000
      vertex  0.587785252292473  0.809016994374947  0.000000000000000
    endloop
  endfacet
  facet normal  0.448535449796434  0.880300385861962 -0.154554782932108
    outer loop
      vertex  0.559016994374947  0.769420884293813 -0.309016994374947
      vertex  0.500000000000000  0.799491544880519 -0.309016994374947
      vertex  0.500000000000000  0.853745814508252  0.000000000000000
    endloop
  endfacet
  facet normal  0.452821390158212 -0.071719862447186  0.888712017441950
    outer loop
      vertex  0.559016994374947 -0.181635632001340  0.809016994374947
      vertex  0.500000000000000  0.000000000000000  0.853745814508252
      vertex  0.500000000000000 -0.162459848116453  0.840635158039759
    endloop
  endfacet
  facet normal  0.452821390158211 -0.071719862447187  0.888712017441950
    outer loop
      vertex  0.559016994374947 -0.181635632001340  0.809016994374947
      vertex  0.587785252292473 -0.000000000000000  0.809016994374947
      vertex  0.500000000000000  0.000000000000000  0.853745814508252
    endloop
  endfacet
  facet normal  0.452821390158210 -0.071719862447187 -0.888712017441951
    outer loop
      vertex  0.559016994374947 -0.181635632001340 -0.809016994374947
      vertex  0.500000000000000  0.000000000000000 -0.853745814508252
      vertex  0.587785252292473  0.000000000000000 -0.809016994374947
    endloop
  endfacet
  facet normal  0.452821390158209 -0.071719862447187 -0.888712017441951
    outer loop
      vertex  0.559016994374947 -0.181635632001340 -0.809016994374947
      vertex  0.500000000000000 -0.162459848116453 -0.840635158039759
      vertex  0.500000000000000  0.000000000000000 -0.853745814508252
    endloop
  endfacet
  facet normal  0.448535449796438  0.880300385861960  0.154554782932108
    outer loop
      vertex  0.587785252292473  0.809016994374947  0.000000000000000
      vertex  0.500000000000000  0.799491544880519  0.309016994374947
      vertex  0.559016994374947  0.769420884293813  0.309016994374947
    endloop
  endfacet
  facet normal  0.448535449796436  0.880300385861961  0.154554782932107
    outer loop
      vertex  0.587785252292473  0.809016994374947  0.000000000000000
      vertex  0.500000000000000  0.853745814508252  0.000000000000000
      vertex  0.500000000000000  0.799491544880519  0.309016994374947
    endloop
  endfacet
  facet normal  0.448535449796435 -0.880300385861962  0.154554782932108
    outer loop
      vertex  0.587785252292473 -0.809016994374948  0.000000000000000
      vertex  0.500000000000000 -0.799491544880519  0.309016994374947
      vertex  0.500000000000000 -0.853745814508252  0.000000000000000
    endloop
  endfacet
  facet normal  0.448535449796433 -0.880300385861963  0.154554782932107
    outer loop
      vertex  0.587785252292473 -0.809016994374948  0.000000000000000
      vertex  0.559016994374947 -0.769420884293814  0.309016994374947
      vertex  0.500000000000000 -0.799491544880519  0.309016994374947
    endloop
  endfacet
  facet normal  0.448535449796432 -0.880300385861963 -0.154554782932109
    outer loop
      vertex  0.559016994374947 -0.769420884293814 -0.309016994374947
      vertex  0.500000000000000 -0.853745814508252  0.000000000000000
      vertex  0.500000000000000 -0.799491544880519 -0.309016994374947
    endloop
  endfacet
  facet normal  0.448535449796436 -0.880300385861961 -0.154554782932107
    outer loop
      vertex  0.559016994374947 -0.769420884293814 -0.309016994374947
      vertex  0.587785252292473 -0.809016994374948  0.000000000000000
      vertex  0.500000000000000 -0.853745814508252  0.000000000000000
    endloop
  endfacet
  facet normal  0.408496077497381  0.208139147503564  0.888712017441951
    outer loop
      vertex  0.559016994374947  0.181635632001340  0.809016994374947
      vertex  0.500000000000000  0.297463005164950  0.809016994374947
      vertex  0.500000000000000  0.162459848116453  0.840635158039759
    endloop
  endfacet
  facet normal  0.408496077497384  0.208139147503564 -0.888712017441950
    outer loop
      vertex  0.559016994374947  0.181635632001340 -0.809016994374947
      vertex  0.500000000000000  0.162459848116453 -0.840635158039759
      vertex  0.500000000000000  0.297463005164951 -0.809016994374947
    endloop
  endfacet
  facet normal  0.405532503770973  0.795902352224720 -0.449536243375774
    outer loop
      vertex  0.559016994374947  0.769420884293813 -0.309016994374947
      vertex  0.500000000000000  0.688190960235587 -0.506074291596784
      vertex  0.500000000000000  0.799491544880519 -0.309016994374947
    endloop
  endfacet
  facet normal  0.405532503770972  0.795902352224721  0.449536243375774
    outer loop
      vertex  0.559016994374947  0.769420884293813  0.309016994374947
      vertex  0.500000000000000  0.799491544880519  0.309016994374947
      vertex  0.500000000000000  0.688190960235587  0.506074291596784
    endloop
  endfacet
  facet normal  0.408496077497381 -0.208139147503564 -0.888712017441951
    outer loop
      vertex  0.559016994374947 -0.181635632001340 -0.809016994374947
      vertex  0.500000000000000 -0.297463005164950 -0.809016994374947
      vertex  0.500000000000000 -0.162459848116453 -0.840635158039759
    endloop
  endfacet
  facet normal  0.408496077497381 -0.208139147503564  0.888712017441952
    outer loop
      vertex  0.559016994374947 -0.181635632001340  0.809016994374947
      vertex  0.500000000000000 -0.162459848116453  0.840635158039759
      vertex  0.500000000000000 -0.297463005164951  0.809016994374947
    endloop
  endfacet
  facet normal  0.405532503770972 -0.795902352224721 -0.449536243375773
    outer loop
      vertex  0.559016994374947 -0.769420884293814 -0.309016994374947
      vertex  0.500000000000000 -0.799491544880519 -0.309016994374947
      vertex  0.500000000000000 -0.688190960235587 -0.506074291596784
    endloop
  endfacet
  facet normal  0.405532503770974 -0.795902352224720  0.449536243375774
    outer loop
      vertex  0.559016994374947 -0.769420884293814  0.309016994374947
      vertex  0.500000000000000 -0.688190960235587  0.506074291596785
      vertex  0.500000000000000 -0.799491544880519  0.309016994374947
    endloop
  endfacet
  facet normal -0.698610341704447  0.698610341704447 -0.154554782932107
    outer loop
      vertex  0.230579115706187  0.559016994374948 -0.309016994374947
      vertex  0.412214747707527  0.809016994374947  0.000000000000000
      vertex  0.440983005625053  0.769420884293813 -0.309016994374947
    endloop
  endfacet
  facet normal -0.698610341704447  0.698610341704447 -0.154554782932107
    outer loop
      vertex  0.230579115706187  0.559016994374948 -0.309016994374947
      vertex  0.190983005625053  0.587785252292473  0.000000000000000
      vertex  0.412214747707527  0.809016994374947  0.000000000000000
    endloop
  endfacet
  facet normal -0.880300385861962  0.448535449796435 -0.154554782932107
    outer loop
      vertex  0.095491502812526  0.293892626146237 -0.309016994374947
      vertex  0.190983005625053  0.587785252292473  0.000000000000000
      vertex  0.230579115706187  0.559016994374948 -0.309016994374947
    endloop
  endfacet
  facet normal -0.880300385861962  0.448535449796435 -0.154554782932108
    outer loop
      vertex  0.095491502812526  0.293892626146237 -0.309016994374947
      vertex  0.048943483704846  0.309016994374948  0.000000000000000
      vertex  0.190983005625053  0.587785252292473  0.000000000000000
    endloop
  endfacet
  facet normal -0.795902352224720  0.405532503770973  0.449536243375774
    outer loop
      vertex  0.095491502812526  0.293892626146237  0.309016994374947
      vertex  0.345491502812526  0.475528258147577  0.587785252292473
      vertex  0.230579115706187  0.559016994374948  0.309016994374947
    endloop
  endfacet
  facet normal -0.795902352224720  0.405532503770974  0.449536243375773
    outer loop
      vertex  0.095491502812526  0.293892626146237  0.309016994374947
      vertex  0.230579115706187  0.250000000000000  0.587785252292473
      vertex  0.345491502812526  0.475528258147577  0.587785252292473
    endloop
  endfacet
  facet normal -0.975820494837866  0.154554782932108 -0.154554782932108
    outer loop
      vertex  0.048943483704846  0.000000000000000 -0.309016994374947
      vertex  0.048943483704846  0.309016994374948  0.000000000000000
      vertex  0.095491502812526  0.293892626146237 -0.309016994374947
    endloop
  endfacet
  facet normal -0.975820494837866  0.154554782932108 -0.154554782932108
    outer loop
      vertex  0.048943483704846  0.000000000000000 -0.309016994374947
      vertex  0.000000000000000  0.000000000000000  0.000000000000000
      vertex  0.048943483704846  0.309016994374948  0.000000000000000
    endloop
  endfacet
  facet normal -0.882264553854614  0.139736977580440  0.449536243375773
    outer loop
      vertex  0.048943483704846  0.000000000000000  0.309016994374947
      vertex  0.230579115706187  0.250000000000000  0.587785252292473
      vertex  0.095491502812526  0.293892626146237  0.309016994374947
    endloop
  endfacet
  facet normal -0.882264553854614  0.139736977580440  0.449536243375774
    outer loop
      vertex  0.048943483704846  0.000000000000000  0.309016994374947
      vertex  0.190983005625053  0.000000000000000  0.587785252292473
      vertex  0.230579115706187  0.250000000000000  0.587785252292473
    endloop
  endfacet
  facet normal -0.975820494837866 -0.154554782932107 -0.154554782932108
    outer loop
      vertex  0.095491502812526 -0.293892626146236 -0.309016994374947
      vertex  0.000000000000000  0.000000000000000  0.000000000000000
      vertex  0.048943483704846  0.000000000000000 -0.309016994374947
    endloop
  endfacet
  facet normal -0.975820494837866 -0.154554782932107 -0.154554782932108
    outer loop
      vertex  0.095491502812526 -0.293892626146236 -0.309016994374947
      vertex  0.048943483704846 -0.309016994374947  0.000000000000000
      vertex  0.000000000000000  0.000000000000000  0.000000000000000
    endloop
  endfacet
  facet normal -0.702713511301559  0.111298886195987  0.702713511301559
    outer loop
      vertex  0.190983005625053  0.000000000000000  0.587785252292473
      vertex  0.440983005625053  0.181635632001340  0.809016994374947
      vertex  0.230579115706187  0.250000000000000  0.587785252292473
    endloop
  endfacet
  facet normal -0.702713511301559  0.111298886195987  0.702713511301559
    outer loop
      vertex  0.190983005625053  0.000000000000000  0.587785252292473
      vertex  0.412214747707527  0.000000000000000  0.809016994374947
      vertex  0.440983005625053  0.181635632001340  0.809016994374947
    endloop
  endfacet
  facet normal -0.702713511301559 -0.111298886195987  0.702713511301559
    outer loop
      vertex  0.230579115706187 -0.250000000000000  0.587785252292473
      vertex  0.412214747707527  0.000000000000000  0.809016994374947
      vertex  0.190983005625053  0.000000000000000  0.587785252292473
    endloop
  endfacet
  facet normal -0.702713511301559 -0.111298886195987  0.702713511301559
    outer loop
      vertex  0.230579115706187 -0.250000000000000  0.587785252292473
      vertex  0.440983005625053 -0.181635632001340  0.809016994374947
      vertex  0.412214747707527  0.000000000000000  0.809016994374947
    endloop
  endfacet
  facet normal -0.882264553854614 -0.139736977580440  0.449536243375774
    outer loop
      vertex  0.095491502812526 -0.293892626146236  0.309016994374947
      vertex  0.190983005625053  0.000000000000000  0.587785252292473
      vertex  0.048943483704846  0.000000000000000  0.309016994374947
    endloop
  endfacet
  facet normal -0.882264553854614 -0.139736977580440  0.449536243375774
    outer loop
      vertex  0.095491502812526 -0.293892626146236  0.309016994374947
      vertex  0.230579115706187 -0.250000000000000  0.587785252292473
      vertex  0.190983005625053  0.000000000000000  0.587785252292473
    endloop
  endfacet
  facet normal -0.702713511301559 -0.111298886195987 -0.702713511301559
    outer loop
      vertex  0.440983005625053 -0.181635632001340 -0.809016994374947
      vertex  0.190983005625053  0.000000000000000 -0.587785252292473
      vertex  0.412214747707527  0.000000000000000 -0.809016994374947
    endloop
  endfacet
  facet normal -0.702713511301559 -0.111298886195987 -0.702713511301559
    outer loop
      vertex  0.440983005625053 -0.181635632001340 -0.809016994374947
      vertex  0.230579115706187 -0.250000000000000 -0.587785252292473
      vertex  0.190983005625053  0.000000000000000 -0.587785252292473
    endloop
  endfacet
  facet normal -0.702713511301559  0.111298886195987 -0.702713511301559
    outer loop
      vertex  0.412214747707527  0.000000000000000 -0.809016994374947
      vertex  0.230579115706187  0.250000000000000 -0.587785252292473
      vertex  0.440983005625053  0.181635632001340 -0.809016994374947
    endloop
  endfacet
  facet normal -0.702713511301559  0.111298886195987 -0.702713511301559
    outer loop
      vertex  0.412214747707527  0.000000000000000 -0.809016994374947
      vertex  0.190983005625053  0.000000000000000 -0.587785252292473
      vertex  0.230579115706187  0.250000000000000 -0.587785252292473
    endloop
  endfacet
  facet normal -0.795902352224720  0.405532503770974 -0.449536243375774
    outer loop
      vertex  0.230579115706187  0.250000000000000 -0.587785252292473
      vertex  0.230579115706187  0.559016994374948 -0.309016994374947
      vertex  0.345491502812526  0.475528258147577 -0.587785252292473
    endloop
  endfacet
  facet normal -0.795902352224720  0.405532503770974 -0.449536243375773
    outer loop
      vertex  0.230579115706187  0.250000000000000 -0.587785252292473
      vertex  0.095491502812526  0.293892626146237 -0.309016994374947
      vertex  0.230579115706187  0.559016994374948 -0.309016994374947
    endloop
  endfacet
  facet normal -0.882264553854614  0.139736977580440 -0.449536243375773
    outer loop
      vertex  0.190983005625053  0.000000000000000 -0.587785252292473
      vertex  0.095491502812526  0.293892626146237 -0.309016994374947
      vertex  0.230579115706187  0.250000000000000 -0.587785252292473
    endloop
  endfacet
  facet normal -0.882264553854614  0.139736977580440 -0.449536243375774
    outer loop
      vertex  0.190983005625053  0.000000000000000 -0.587785252292473
      vertex  0.048943483704846  0.000000000000000 -0.309016994374947
      vertex  0.095491502812526  0.293892626146237 -0.309016994374947
    endloop
  endfacet
  facet normal -0.882264553854614 -0.139736977580440 -0.449536243375774
    outer loop
      vertex  0.230579115706187 -0.250000000000000 -0.587785252292473
      vertex  0.048943483704846  0.000000000000000 -0.309016994374947
      vertex  0.190983005625053  0.000000000000000 -0.587785252292473
    endloop
  endfacet
  facet normal -0.882264553854614 -0.139736977580440 -0.449536243375774
    outer loop
      vertex  0.230579115706187 -0.250000000000000 -0.587785252292473
      vertex  0.095491502812526 -0.293892626146236 -0.309016994374947
      vertex  0.048943483704846  0.000000000000000 -0.309016994374947
    endloop
  endfacet
  facet normal -0.795902352224720 -0.405532503770974 -0.449536243375774
    outer loop
      vertex  0.345491502812526 -0.475528258147577 -0.587785252292473
      vertex  0.095491502812526 -0.293892626146236 -0.309016994374947
      vertex  0.230579115706187 -0.250000000000000 -0.587785252292473
    endloop
  endfacet
  facet normal -0.795902352224720 -0.405532503770973 -0.449536243375774
    outer loop
      vertex  0.345491502812526 -0.475528258147577 -0.587785252292473
      vertex  0.230579115706187 -0.559016994374947 -0.309016994374947
      vertex  0.095491502812526 -0.293892626146236 -0.309016994374947
    endloop
  endfacet
  facet normal -0.880300385861962 -0.448535449796435 -0.154554782932108
    outer loop
      vertex  0.230579115706187 -0.559016994374947 -0.309016994374947
      vertex  0.048943483704846 -0.309016994374947  0.000000000000000
      vertex  0.095491502812526 -0.293892626146236 -0.309016994374947
    endloop
  endfacet
  facet normal -0.880300385861962 -0.448535449796435 -0.154554782932107
    outer loop
      vertex  0.230579115706187 -0.559016994374947 -0.309016994374947
      vertex  0.190983005625053 -0.587785252292473  0.000000000000000
      vertex  0.048943483704846 -0.309016994374947  0.000000000000000
    endloop
  endfacet
  facet normal -0.795902352224720 -0.405532503770973  0.449536243375774
    outer loop
      vertex  0.230579115706187 -0.559016994374947  0.309016994374947
      vertex  0.230579115706187 -0.250000000000000  0.587785252292473
      vertex  0.095491502812526 -0.293892626146236  0.309016994374947
    endloop
  endfacet
  facet normal -0.795902352224720 -0.405532503770974  0.449536243375774
    outer loop
      vertex  0.230579115706187 -0.559016994374947  0.309016994374947
      vertex  0.345491502812526 -0.475528258147577  0.587785252292473
      vertex  0.230579115706187 -0.250000000000000  0.587785252292473
    endloop
  endfacet
  facet normal -0.698610341704447 -0.698610341704447 -0.154554782932107
    outer loop
      vertex  0.440983005625052 -0.769420884293813 -0.309016994374947
      vertex  0.190983005625053 -0.587785252292473  0.000000000000000
      vertex  0.230579115706187 -0.559016994374947 -0.309016994374947
    endloop
  endfacet
  facet normal -0.698610341704447 -0.698610341704447 -0.154554782932107
    outer loop
      vertex  0.440983005625052 -0.769420884293813 -0.309016994374947
      vertex  0.412214747707527 -0.809016994374947  0.000000000000000
      vertex  0.190983005625053 -0.587785252292473  0.000000000000000
    endloop
  endfacet
  facet normal -0.698610341704447 -0.698610341704447  0.154554782932107
    outer loop
      vertex  0.412214747707527 -0.809016994374947  0.000000000000000
      vertex  0.230579115706187 -0.559016994374947  0.309016994374947
      vertex  0.190983005625053 -0.587785252292473  0.000000000000000
    endloop
  endfacet
  facet normal -0.698610341704447 -0.698610341704447  0.154554782932107
    outer loop
      vertex  0.412214747707527 -0.809016994374947  0.000000000000000
      vertex  0.440983005625052 -0.769420884293813  0.309016994374947
      vertex  0.230579115706187 -0.559016994374947  0.309016994374947
    endloop
  endfacet
  facet normal -0.880300385861962 -0.448535449796435  0.154554782932108
    outer loop
      vertex  0.190983005625053 -0.587785252292473  0.000000000000000
      vertex  0.095491502812526 -0.293892626146236  0.309016994374947
      vertex  0.048943483704846 -0.309016994374947  0.000000000000000
    endloop
  endfacet
  facet normal -0.880300385861962 -0.448535449796435  0.154554782932107
    outer loop
      vertex  0.190983005625053 -0.587785252292473  0.000000000000000
      vertex  0.230579115706187 -0.559016994374947  0.309016994374947
      vertex  0.095491502812526 -0.293892626146236  0.309016994374947
    endloop
  endfacet
  facet normal -0.975820494837866 -0.154554782932107  0.154554782932108
    outer loop
      vertex  0.048943483704846 -0.309016994374947  0.000000000000000
      vertex  0.048943483704846  0.000000000000000  0.309016994374947
      vertex  0.000000000000000  0.000000000000000  0.000000000000000
    endloop
  endfacet
  facet normal -0.975820494837866 -0.154554782932107  0.154554782932108
    outer loop
      vertex  0.048943483704846 -0.309016994374947  0.000000000000000
      vertex  0.095491502812526 -0.293892626146236  0.309016994374947
      vertex  0.048943483704846  0.000000000000000  0.309016994374947
    endloop
  endfacet
  facet normal -0.975820494837866  0.154554782932108  0.154554782932108
    outer loop
      vertex  0.000000000000000  0.000000000000000  0.000000000000000
      vertex  0.095491502812526  0.293892626146237  0.309016994374947
      vertex  0.048943483704846  0.309016994374948  0.000000000000000
    endloop
  endfacet
  facet normal -0.975820494837866  0.154554782932108  0.154554782932108
    outer loop
      vertex  0.000000000000000  0.000000000000000  0.000000000000000
      vertex  0.048943483704846  0.000000000000000  0.309016994374947
      vertex  0.095491502812526  0.293892626146237  0.309016994374947
    endloop
  endfacet
  facet normal -0.880300385861962  0.448535449796435  0.154554782932107
    outer loop
      vertex  0.048943483704846  0.309016994374948  0.000000000000000
      vertex  0.230579115706187  0.559016994374948  0.309016994374947
      vertex  0.190983005625053  0.587785252292473  0.000000000000000
    endloop
  endfacet
  facet normal -0.880300385861962  0.448535449796435  0.154554782932108
    outer loop
      vertex  0.048943483704846  0.309016994374948  0.000000000000000
      vertex  0.095491502812526  0.293892626146237  0.309016994374947
      vertex  0.230579115706187  0.559016994374948  0.309016994374947
    endloop
  endfacet
  facet normal -0.698610341704447  0.698610341704447  0.154554782932107
    outer loop
      vertex  0.190983005625053  0.587785252292473  0.000000000000000
      vertex  0.440983005625053  0.769420884293813  0.309016994374947
      vertex  0.412214747707527  0.809016994374947  0.000000000000000
    endloop
  endfacet
  facet normal -0.698610341704447  0.698610341704447  0.154554782932107
    outer loop
      vertex  0.190983005625053  0.587785252292473  0.000000000000000
      vertex  0.230579115706187  0.559016994374948  0.309016994374947
      vertex  0.440983005625053  0.769420884293813  0.309016994374947
    endloop
  endfacet
  facet normal -0.405532503770974  0.795902352224720 -0.449536243375774
    outer loop
      vertex  0.440983005625053  0.769420884293813 -0.309016994374947
      vertex  0.500000000000000  0.799491544880519 -0.309016994374947
      vertex  0.500000000000000  0.688190960235587 -0.506074291596784
    endloop
  endfacet
  facet normal -0.405532503770975  0.795902352224719  0.449536243375774
    outer loop
      vertex  0.440983005625053  0.769420884293813  0.309016994374947
      vertex  0.500000000000000  0.688190960235587  0.506074291596784
      vertex  0.500000000000000  0.799491544880519  0.309016994374947
    endloop
  endfacet
  facet normal -0.408496077497381  0.208139147503564  0.888712017441951
    outer loop
      vertex  0.440983005625053  0.181635632001340  0.809016994374947
      vertex  0.500000000000000  0.162459848116453  0.840635158039759
      vertex  0.500000000000000  0.297463005164950  0.809016994374947
    endloop
  endfacet
  facet normal -0.408496077497381 -0.208139147503565 -0.888712017441951
    outer loop
      vertex  0.440983005625053 -0.181635632001340 -0.809016994374947
      vertex  0.500000000000000 -0.162459848116453 -0.840635158039759
      vertex  0.500000000000000 -0.297463005164950 -0.809016994374947
    endloop
  endfacet
  facet normal -0.408496077497381  0.208139147503564 -0.888712017441951
    outer loop
      vertex  0.440983005625053  0.181635632001340 -0.809016994374947
      vertex  0.500000000000000  0.297463005164951 -0.809016994374947
      vertex  0.500000000000000  0.162459848116453 -0.840635158039759
    endloop
  endfacet
  facet normal -0.408496077497381 -0.208139147503565  0.888712017441951
    outer loop
      vertex  0.440983005625053 -0.181635632001340  0.809016994374947
      vertex  0.500000000000000 -0.297463005164951  0.809016994374947
      vertex  0.500000000000000 -0.162459848116453  0.840635158039759
    endloop
  endfacet
  facet normal -0.405532503770972 -0.795902352224721  0.449536243375774
    outer loop
      vertex  0.440983005625052 -0.769420884293813  0.309016994374947
      vertex  0.500000000000000 -0.799491544880519  0.309016994374947
      vertex  0.500000000000000 -0.688190960235587  0.506074291596785
    endloop
  endfacet
  facet normal -0.405532503770974 -0.795902352224719 -0.449536243375774
    outer loop
      vertex  0.440983005625052 -0.769420884293813 -0.309016994374947
      vertex  0.500000000000000 -0.688190960235587 -0.506074291596784
      vertex  0.500000000000000 -0.799491544880519 -0.309016994374947
    endloop
  endfacet
  facet normal -0.448535449796435  0.880300385861962  0.154554782932107
    outer loop
      vertex  0.412214747707527  0.809016994374947  0.000000000000000
      vertex  0.500000000000000  0.799491544880519  0.309016994374947
      vertex  0.500000000000000  0.853745814508252  0.000000000000000
    endloop
  endfacet
  facet normal -0.448535449796436  0.880300385861961  0.154554782932107
    outer loop
      vertex  0.412214747707527  0.809016994374947  0.000000000000000
      vertex  0.440983005625053  0.769420884293813  0.309016994374947
      vertex  0.500000000000000  0.799491544880519  0.309016994374947
    endloop
  endfacet
  facet normal -0.448535449796433  0.880300385861963 -0.154554782932108
    outer loop
      vertex  0.440983005625053  0.769420884293813 -0.309016994374947
      vertex  0.500000000000000  0.853745814508252  0.000000000000000
      vertex  0.500000000000000  0.799491544880519 -0.309016994374947
    endloop
  endfacet
  facet normal -0.448535449796435  0.880300385861962 -0.154554782932107
    outer loop
      vertex  0.440983005625053  0.769420884293813 -0.309016994374947
      vertex  0.412214747707527  0.809016994374947  0.000000000000000
      vertex  0.500000000000000  0.853745814508252  0.000000000000000
    endloop
  endfacet
  facet normal -0.452821390158210  0.071719862447187 -0.888712017441951
    outer loop
      vertex  0.440983005625053  0.181635632001340 -0.809016994374947
      vertex  0.500000000000000  0.000000000000000 -0.853745814508252
      vertex  0.412214747707527  0.000000000000000 -0.809016994374947
    endloop
  endfacet
  facet normal -0.452821390158212  0.071719862447186 -0.888712017441950
    outer loop
      vertex  0.440983005625053  0.181635632001340 -0.809016994374947
      vertex  0.500000000000000  0.162459848116453 -0.840635158039759
      vertex  0.500000000000000  0.000000000000000 -0.853745814508252
    endloop
  endfacet
  facet normal -0.452821390158210 -0.071719862447187 -0.888712017441951
    outer loop
      vertex  0.412214747707527  0.000000000000000 -0.809016994374947
      vertex  0.500000000000000 -0.162459848116453 -0.840635158039759
      vertex  0.440983005625053 -0.181635632001340 -0.809016994374947
    endloop
  endfacet
  facet normal -0.452821390158211 -0.071719862447187 -0.888712017441950
    outer loop
      vertex  0.412214747707527  0.000000000000000 -0.809016994374947
      vertex  0.500000000000000  0.000000000000000 -0.853745814508252
      vertex  0.500000000000000 -0.162459848116453 -0.840635158039759
    endloop
  endfacet
  facet normal -0.452821390158209  0.071719862447187  0.888712017441951
    outer loop
      vertex  0.440983005625053  0.181635632001340  0.809016994374947
      vertex  0.500000000000000  0.000000000000000  0.853745814508252
      vertex  0.500000000000000  0.162459848116453  0.840635158039759
    endloop
  endfacet
  facet normal -0.452821390158210  0.071719862447187  0.888712017441951
    outer loop
      vertex  0.440983005625053  0.181635632001340  0.809016994374947
      vertex  0.412214747707527  0.000000000000000  0.809016994374947
      vertex  0.500000000000000  0.000000000000000  0.853745814508252
    endloop
  endfacet
  facet normal -0.452821390158210 -0.071719862447186  0.888712017441951
    outer loop
      vertex  0.412214747707527  0.000000000000000  0.809016994374947
      vertex  0.500000000000000 -0.162459848116453  0.840635158039759
      vertex  0.500000000000000  0.000000000000000  0.853745814508252
    endloop
  endfacet
  facet normal -0.452821390158210 -0.071719862447187  0.888712017441951
    outer loop
      vertex  0.412214747707527  0.000000000000000  0.809016994374947
      vertex  0.440983005625053 -0.181635632001340  0.809016994374947
      vertex  0.500000000000000 -0.162459848116453  0.840635158039759
    endloop
  endfacet
  facet normal -0.448535449796434 -0.880300385861962  0.154554782932107
    outer loop
      vertex  0.412214747707527 -0.809016994374947  0.000000000000000
      vertex  0.500000000000000 -0.799491544880519  0.309016994374947
      vertex  0.440983005625052 -0.769420884293813  0.309016994374947
    endloop
  endfacet
  facet normal -0.448535449796435 -0.880300385861962  0.154554782932108
    outer loop
      vertex  0.412214747707527 -0.809016994374947  0.000000000000000
      vertex  0.500000000000000 -0.853745814508252  0.000000000000000
      vertex  0.500000000000000 -0.799491544880519  0.309016994374947
    endloop
  endfacet
  facet normal -0.448535449796435 -0.880300385861962 -0.154554782932107
    outer loop
      vertex  0.440983005625052 -0.769420884293813 -0.309016994374947
      vertex  0.500000000000000 -0.853745814508252  0.000000000000000
      vertex  0.412214747707527 -0.809016994374947  0.000000000000000
    endloop
  endfacet
  facet normal -0.448535449796434 -0.880300385861962 -0.154554782932108
    outer loop
      vertex  0.440983005625052 -0.769420884293813 -0.309016994374947
      vertex  0.500000000000000 -0.799491544880519 -0.309016994374947
      vertex  0.500000000000000 -0.853745814508252  0.000000000000000
    endloop
  endfacet
  facet normal -0.503087328917273  0.503087328917274  0.702713511301559
    outer loop
      vertex  0.345491502812526  0.475528258147577  0.587785252292473
      vertex  0.500000000000000  0.363271264002681  0.778768257917526
      vertex  0.500000000000000  0.630036755335050  0.587785252292473
    endloop
  endfacet
  facet normal -0.503087328917274  0.503087328917273 -0.702713511301559
    outer loop
      vertex  0.345491502812526  0.475528258147577 -0.587785252292473
      vertex  0.500000000000000  0.630036755335050 -0.587785252292473
      vertex  0.500000000000000  0.363271264002681 -0.778768257917526
    endloop
  endfacet
  facet normal -0.503087328917274 -0.503087328917273 -0.702713511301559
    outer loop
      vertex  0.345491502812526 -0.475528258147577 -0.587785252292473
      vertex  0.500000000000000 -0.363271264002680 -0.778768257917526
      vertex  0.500000000000000 -0.630036755335050 -0.587785252292473
    endloop
  endfacet
  facet normal -0.503087328917274 -0.503087328917273  0.702713511301559
    outer loop
      vertex  0.345491502812526 -0.475528258147577  0.587785252292473
      vertex  0.500000000000000 -0.630036755335050  0.587785252292473
      vertex  0.500000000000000 -0.363271264002680  0.778768257917526
    endloop
  endfacet
  facet normal -0.631631682981307  0.631631682981307  0.449536243375773
    outer loop
      vertex  0.440983005625053  0.769420884293813  0.309016994374947
      vertex  0.500000000000000  0.630036755335050  0.587785252292473
      vertex  0.500000000000000  0.688190960235587  0.506074291596784
    endloop
  endfacet
  facet normal -0.631631682981307  0.631631682981307  0.449536243375774
    outer loop
      vertex  0.440983005625053  0.769420884293813  0.309016994374947
      vertex  0.230579115706187  0.559016994374948  0.309016994374947
      vertex  0.345491502812526  0.475528258147577  0.587785252292473
    endloop
  endfacet
  facet normal -0.631631682981307  0.631631682981307  0.449536243375773
    outer loop
      vertex  0.440983005625053  0.769420884293813  0.309016994374947
      vertex  0.345491502812526  0.475528258147577  0.587785252292473
      vertex  0.500000000000000  0.630036755335050  0.587785252292473
    endloop
  endfacet
  facet normal -0.631631682981307  0.631631682981307 -0.449536243375774
    outer loop
      vertex  0.345491502812526  0.475528258147577 -0.587785252292473
      vertex  0.500000000000000  0.688190960235587 -0.506074291596784
      vertex  0.500000000000000  0.630036755335050 -0.587785252292473
    endloop
  endfacet
  facet normal -0.631631682981307  0.631631682981307 -0.449536243375774
    outer loop
      vertex  0.345491502812526  0.475528258147577 -0.587785252292473
      vertex  0.230579115706187  0.559016994374948 -0.309016994374947
      vertex  0.440983005625053  0.769420884293813 -0.309016994374947
    endloop
  endfacet
  facet normal -0.631631682981308  0.631631682981307 -0.449536243375773
    outer loop
      vertex  0.345491502812526  0.475528258147577 -0.587785252292473
      vertex  0.440983005625053  0.769420884293813 -0.309016994374947
      vertex  0.500000000000000  0.688190960235587 -0.506074291596784
    endloop
  endfacet
  facet normal -0.633927016722433 -0.323001948142160 -0.702713511301559
    outer loop
      vertex  0.440983005625053 -0.181635632001340 -0.809016994374947
      vertex  0.345491502812526 -0.475528258147577 -0.587785252292473
      vertex  0.230579115706187 -0.250000000000000 -0.587785252292473
    endloop
  endfacet
  facet normal -0.633927016722433 -0.323001948142160 -0.702713511301558
    outer loop
      vertex  0.440983005625053 -0.181635632001340 -0.809016994374947
      vertex  0.500000000000000 -0.297463005164950 -0.809016994374947
      vertex  0.500000000000000 -0.363271264002680 -0.778768257917526
    endloop
  endfacet
  facet normal -0.633927016722433 -0.323001948142160 -0.702713511301559
    outer loop
      vertex  0.440983005625053 -0.181635632001340 -0.809016994374947
      vertex  0.500000000000000 -0.363271264002680 -0.778768257917526
      vertex  0.345491502812526 -0.475528258147577 -0.587785252292473
    endloop
  endfacet
  facet normal -0.631631682981307 -0.631631682981307  0.449536243375775
    outer loop
      vertex  0.345491502812526 -0.475528258147577  0.587785252292473
      vertex  0.500000000000000 -0.688190960235587  0.506074291596785
      vertex  0.500000000000000 -0.630036755335050  0.587785252292473
    endloop
  endfacet
  facet normal -0.631631682981307 -0.631631682981307  0.449536243375774
    outer loop
      vertex  0.345491502812526 -0.475528258147577  0.587785252292473
      vertex  0.230579115706187 -0.559016994374947  0.309016994374947
      vertex  0.440983005625052 -0.769420884293813  0.309016994374947
    endloop
  endfacet
  facet normal -0.631631682981308 -0.631631682981307  0.449536243375773
    outer loop
      vertex  0.345491502812526 -0.475528258147577  0.587785252292473
      vertex  0.440983005625052 -0.769420884293813  0.309016994374947
      vertex  0.500000000000000 -0.688190960235587  0.506074291596785
    endloop
  endfacet
  facet normal -0.631631682981307 -0.631631682981307 -0.449536243375774
    outer loop
      vertex  0.345491502812526 -0.475528258147577 -0.587785252292473
      vertex  0.440983005625052 -0.769420884293813 -0.309016994374947
      vertex  0.230579115706187 -0.559016994374947 -0.309016994374947
    endloop
  endfacet
  facet normal -0.631631682981307 -0.631631682981307 -0.449536243375774
    outer loop
      vertex  0.345491502812526 -0.475528258147577 -0.587785252292473
      vertex  0.500000000000000 -0.630036755335050 -0.587785252292473
      vertex  0.500000000000000 -0.688190960235587 -0.506074291596784
    endloop
  endfacet
  facet normal -0.631631682981307 -0.631631682981307 -0.449536243375774
    outer loop
      vertex  0.345491502812526 -0.475528258147577 -0.587785252292473
      vertex  0.500000000000000 -0.688190960235587 -0.506074291596784
      vertex  0.440983005625052 -0.769420884293813 -0.309016994374947
    endloop
  endfacet
  facet normal -0.633927016722433 -0.323001948142160  0.702713511301559
    outer loop
      vertex  0.440983005625053 -0.181635632001340  0.809016994374947
      vertex  0.500000000000000 -0.363271264002680  0.778768257917526
      vertex  0.500000000000000 -0.297463005164951  0.809016994374947
    endloop
  endfacet
  facet normal -0.633927016722433 -0.323001948142160  0.702713511301559
    outer loop
      vertex  0.440983005625053 -0.181635632001340  0.809016994374947
      vertex  0.230579115706187 -0.250000000000000  0.587785252292473
      vertex  0.345491502812526 -0.475528258147577  0.587785252292473
    endloop
  endfacet
  facet normal -0.633927016722433 -0.323001948142160  0.702713511301559
    outer loop
      vertex  0.440983005625053 -0.181635632001340  0.809016994374947
      vertex  0.345491502812526 -0.475528258147577  0.587785252292473
      vertex  0.500000000000000 -0.363271264002680  0.778768257917526
    endloop
  endfacet
  facet normal -0.633927016722433  0.323001948142158  0.702713511301559
    outer loop
      vertex  0.345491502812526  0.475528258147577  0.587785252292473
      vertex  0.500000000000000  0.297463005164950  0.809016994374947
      vertex  0.500000000000000  0.363271264002681  0.778768257917526
    endloop
  endfacet
  facet normal -0.633927016722432  0.323001948142160  0.702713511301559
    outer loop
      vertex  0.345491502812526  0.475528258147577  0.587785252292473
      vertex  0.230579115706187  0.250000000000000  0.587785252292473
      vertex  0.440983005625053  0.181635632001340  0.809016994374947
    endloop
  endfacet
  facet normal -0.633927016722432  0.323001948142161  0.702713511301559
    outer loop
      vertex  0.345491502812526  0.475528258147577  0.587785252292473
      vertex  0.440983005625053  0.181635632001340  0.809016994374947
      vertex  0.500000000000000  0.297463005164950  0.809016994374947
    endloop
  endfacet
  facet normal -0.633927016722432  0.323001948142159 -0.702713511301560
    outer loop
      vertex  0.440983005625053  0.181635632001340 -0.809016994374947
      vertex  0.500000000000000  0.363271264002681 -0.778768257917526
      vertex  0.500000000000000  0.297463005164951 -0.809016994374947
    endloop
  endfacet
  facet normal -0.633927016722432  0.323001948142160 -0.702713511301559
    outer loop
      vertex  0.440983005625053  0.181635632001340 -0.809016994374947
      vertex  0.230579115706187  0.250000000000000 -0.587785252292473
      vertex  0.345491502812526  0.475528258147577 -0.587785252292473
    endloop
  endfacet
  facet normal -0.633927016722433  0.323001948142159 -0.702713511301558
    outer loop
      vertex  0.440983005625053  0.181635632001340 -0.809016994374947
      vertex  0.345491502812526  0.475528258147577 -0.587785252292473
      vertex  0.500000000000000  0.363271264002681 -0.778768257917526
    endloop
  endfacet
endsolid

