<svg width = "200" height = "300" xmlns="http://www.w3.org/2000/svg">
    <polygon points="0,0 200,0 200,250 0,250" fill = "green"></polygon>
    <polygon points="40,40 80,40 80,80 40,80" fill = "black"></polygon>
    <polygon points="120,40 160,40 160,80 120,80" fill = "black"></polygon>
    <polygon points="80,80 120,80 120,100 80,100" fill = "black"></polygon>
    <polygon points="60,100 140,100 140,140 60,140" fill = "black"></polygon>
    <polygon points="60,140 80,140 80,160 60,160" fill = "black"></polygon>
    <polygon points="120,140 140,140 140,160 120,160" fill = "black"></polygon>
    <text x="100" y="200" font-size="30" text-anchor="middle" fill="white">Creeper</text>
    <text x="100" y="220" font-size="12" text-anchor="middle" fill="white">Edit by Huisu</text>
</svg>